<svg version="1.1" id="Layer_1" xmlns="http://www.w3.org/2000/svg" xmlns:xlink="http://www.w3.org/1999/xlink" x="0px" y="0px"
	 width="100%" viewBox="0 0 1024 1024" enable-background="new 0 0 1024 1024" xml:space="preserve">
<path fill="#F6FBF7" opacity="1.000000" stroke="none" 
	d="
M655.000000,1025.000000 
	C436.666656,1025.000000 218.833328,1025.000000 1.000000,1025.000000 
	C1.000000,683.666687 1.000000,342.333344 1.000000,1.000000 
	C342.333344,1.000000 683.666687,1.000000 1025.000000,1.000000 
	C1025.000000,342.333344 1025.000000,683.666687 1025.000000,1025.000000 
	C901.833313,1025.000000 778.666687,1025.000000 655.000000,1025.000000 
M592.313599,280.919922 
	C592.131592,281.226105 591.949585,281.532288 591.845154,281.782196 
	C591.845154,281.782196 591.756531,281.745758 591.141052,281.918762 
	C590.408508,282.927612 589.675903,283.936432 588.996948,284.990723 
	C588.996948,284.990723 588.945251,284.951355 588.424988,285.255798 
	C588.210083,285.802551 587.995239,286.349304 587.894592,286.918884 
	C587.894592,286.918884 587.822815,286.827087 587.223938,287.144348 
	C585.062683,291.887482 582.901367,296.630646 580.302551,300.848724 
	C576.565186,297.191498 572.827881,293.534241 568.765686,289.289276 
	C544.488098,271.256226 517.442627,265.640900 488.094635,272.207214 
	C474.565796,275.234161 461.885223,280.643555 451.243988,291.039978 
	C448.004120,294.513306 444.764252,297.986633 440.946747,301.786407 
	C439.245453,304.476685 437.544128,307.166931 435.476562,309.733887 
	C435.105011,309.552460 434.733429,309.371033 434.336945,308.136261 
	C434.291260,306.971100 434.272278,305.804199 434.195984,304.641022 
	C432.933014,285.385529 418.719727,272.019257 399.428894,271.950989 
	C394.930725,271.935059 390.429565,271.855804 385.934723,271.981476 
	C372.766205,272.349609 360.467651,280.751007 355.910767,292.541931 
	C355.309601,298.690247 354.708435,304.838593 354.013672,311.921814 
	C354.057404,335.867188 354.101166,359.812592 353.953613,384.709198 
	C353.975281,402.341492 353.757141,419.978485 354.105011,437.604340 
	C354.327850,448.895874 361.831879,458.194977 371.891998,460.936676 
	C387.324921,465.142639 402.365631,453.814453 402.722534,437.283234 
	C403.077942,420.821136 402.840332,404.346924 402.978363,387.878998 
	C403.018494,383.090881 403.455444,378.306061 403.916046,374.348755 
	C406.603119,382.209717 409.290222,390.070709 411.904999,398.717865 
	C416.286987,408.399261 419.656342,418.712555 425.232758,427.648590 
	C445.354980,459.893738 474.718933,476.476715 513.870361,476.978088 
	C519.338135,476.635437 524.852600,476.631287 530.264648,475.884796 
	C544.798889,473.880219 558.199097,468.813263 570.806091,459.994598 
	C576.230286,455.105194 581.654419,450.215790 587.746216,445.087799 
	C588.851501,443.237122 589.956787,441.386414 590.995483,439.518585 
	C590.995483,439.518585 591.038147,439.572540 591.765625,439.444366 
	C593.305969,437.938782 595.132812,436.632843 596.342529,434.896851 
	C609.216309,416.423218 618.059998,396.433777 618.815491,373.522858 
	C619.040100,366.709473 619.041565,359.888794 620.063599,353.013733 
	C628.064270,352.904724 636.064941,352.795685 644.973755,352.874847 
	C648.135071,352.905243 651.296448,352.938538 654.457764,352.965515 
	C668.988953,353.089478 674.491699,349.460541 680.575317,336.395630 
	C689.305115,350.075745 701.460693,357.323486 717.949890,355.228424 
	C740.452026,352.369385 755.542603,330.290344 751.511230,306.733826 
	C748.058655,286.559448 732.943237,272.446930 713.682495,271.852020 
	C699.603210,271.417145 688.633301,277.300049 680.381531,288.858948 
	C673.620056,275.551300 662.683105,270.386993 647.318054,272.113251 
	C646.509460,272.177734 645.700806,272.242188 644.091492,272.070984 
	C642.433594,272.152039 640.775696,272.233063 638.241516,272.113708 
	C636.158264,272.189880 634.075012,272.266052 631.086792,272.085602 
	C624.655334,272.080688 618.184875,271.647644 611.807007,272.229675 
	C607.917236,272.584717 604.170227,274.502563 600.191650,275.610779 
	C600.191650,275.610779 600.014221,275.700897 599.312439,275.741028 
	C598.188599,276.475677 597.064819,277.210327 596.005554,277.988983 
	C596.005554,277.988983 595.947632,277.933624 595.308289,278.064087 
	C594.456665,278.993073 593.605042,279.922058 592.861877,280.885345 
	C592.861877,280.885345 592.847046,280.772552 592.313599,280.919922 
M630.713074,611.627747 
	C630.433167,611.608215 630.291138,611.738892 629.439270,612.053650 
	C612.789368,609.287598 598.945251,601.627258 589.473389,587.510803 
	C583.726013,578.945068 579.108276,569.621338 573.948547,560.577759 
	C573.948547,562.339233 573.952026,564.282043 573.948059,566.224915 
	C573.909607,585.014709 573.888123,603.804626 573.796997,622.594177 
	C573.789368,624.166931 573.311035,625.737366 572.637573,626.746765 
	C566.583618,619.302246 558.448547,615.163269 549.382385,613.061279 
	C521.686035,606.639709 497.703491,614.548767 476.775116,632.906860 
	C464.239227,643.903137 454.607971,656.911865 451.527374,673.766907 
	C449.223114,686.374512 457.002136,698.251648 468.938751,699.761414 
	C474.798462,700.502625 480.862030,699.632263 487.770203,699.695679 
	C514.832642,699.755432 541.895020,699.834167 568.957458,699.858154 
	C574.089050,699.862732 579.220703,699.650574 585.213867,699.685242 
	C588.042480,699.746338 590.870789,699.832886 593.699768,699.864258 
	C607.009155,700.011963 620.318787,700.144592 633.669434,701.175293 
	C633.720032,712.147095 633.382690,723.138062 633.922058,734.085815 
	C634.556763,746.968506 643.956787,755.742249 657.087219,756.423767 
	C681.203918,756.476929 705.320557,756.549377 729.437256,756.547546 
	C731.409607,756.547424 733.437744,756.247681 735.344482,755.733276 
	C743.245178,753.601746 749.025696,746.055786 748.693848,738.511108 
	C748.343994,730.556274 742.266357,723.087097 734.016663,722.719299 
	C721.121155,722.144287 708.171265,722.791931 694.277710,722.973022 
	C688.334473,722.981018 682.390564,723.048279 676.448181,722.980957 
	C670.052856,722.908447 664.078369,718.339478 662.918274,712.085938 
	C662.204773,708.240051 662.454834,704.215393 663.152893,700.058228 
	C684.093933,700.023926 705.035034,699.993103 725.976074,699.953125 
	C731.961853,699.941650 737.511963,698.558411 742.106995,694.489746 
	C749.210754,688.199646 751.930237,680.296021 749.671875,671.117981 
	C747.225769,661.177246 740.556580,655.198914 731.124207,652.202087 
	C732.347351,651.680542 733.563110,651.140686 734.794861,650.640259 
	C746.373047,645.937439 752.737061,635.377625 750.686096,624.259338 
	C748.407166,611.905151 739.337219,604.341370 726.412476,604.099854 
	C721.414551,604.006409 716.411987,604.133484 711.415710,604.001526 
	C709.829895,603.959656 708.257751,603.404602 707.471497,602.897644 
	C716.582825,598.986511 726.316467,596.078857 734.648865,590.911743 
	C745.196655,584.370789 751.846130,574.682678 751.346802,561.140808 
	C750.893738,548.855469 751.302368,536.538330 751.650574,523.323303 
	C751.650574,510.068298 751.650574,496.813293 751.650574,483.558289 
	C751.078735,483.349976 750.506897,483.141663 749.935059,482.933319 
	C739.175537,498.069763 723.706909,505.732178 705.966614,511.101929 
	C705.470825,511.157410 704.964966,511.167419 704.480713,511.274963 
	C672.911926,518.283508 645.963379,510.365997 623.914062,486.441132 
	C622.259094,484.645416 620.202026,483.220367 618.065247,481.003601 
	C611.259399,471.375397 604.958435,468.273834 596.500793,470.388672 
	C588.409363,472.411926 581.748779,479.638275 581.272034,488.795319 
	C580.745972,498.899078 580.310608,509.239624 581.816895,519.176697 
	C588.143433,560.913513 623.927002,596.126709 665.557312,603.641541 
	C657.368652,606.202271 649.180054,608.763000 640.078613,611.203369 
	C637.032471,611.424072 633.986267,611.644775 630.713074,611.627747 
M578.013916,722.393372 
	C574.371033,722.345886 570.715088,722.079102 567.088013,722.296082 
	C559.270447,722.763611 552.670044,728.525208 551.252136,735.815247 
	C549.709167,743.748596 552.755737,751.316162 560.523560,754.090027 
	C566.192444,756.114319 572.758972,755.624634 579.847717,756.454712 
	C584.486572,756.548523 589.136475,756.890015 593.762085,756.684814 
	C603.505615,756.252625 610.924500,748.793701 611.094604,739.599487 
	C611.261536,730.575928 604.418640,722.787170 595.327820,722.233765 
	C589.888428,721.902588 584.403076,722.325806 578.013916,722.393372 
M631.957581,456.904053 
	C639.696167,475.936768 663.598389,490.362427 685.926880,489.161469 
	C694.684265,487.446533 703.994751,487.076721 712.088806,483.748566 
	C731.468445,475.780029 743.849060,460.857574 748.152588,440.246613 
	C750.644592,428.311310 742.327637,417.741516 730.386169,416.377075 
	C725.988403,415.874573 721.453186,416.574951 716.192566,416.487946 
	C693.058105,416.521393 669.922302,416.420593 646.789551,416.636719 
	C632.017151,416.774689 622.246948,429.100494 625.820129,443.295959 
	C626.959839,447.823517 629.857727,451.908508 631.957581,456.904053 
M297.433258,329.911804 
	C287.886414,332.088715 281.201508,337.765442 276.918579,346.494537 
	C272.637482,355.219910 273.067535,364.493439 273.339142,374.611816 
	C273.451721,388.599609 273.404816,402.591034 273.719849,416.574249 
	C274.063324,431.821106 286.874603,443.602264 302.722198,443.601044 
	C317.283295,443.599976 330.391022,431.511383 330.658020,416.988007 
	C331.025208,397.015137 330.765167,377.030701 330.960938,356.123688 
	C330.908539,347.366394 330.856140,338.609070 330.952484,328.943878 
	C330.980530,318.618683 331.202057,308.289520 330.989288,297.969299 
	C330.701355,284.001251 318.916321,272.426544 304.948822,272.024872 
	C291.353027,271.633881 279.582245,279.983978 275.828857,292.682312 
	C272.379333,304.352631 278.942169,318.831848 290.832916,325.709076 
	C293.274261,327.121063 295.780975,328.419983 297.433258,329.911804 
M316.858582,756.138733 
	C321.650208,756.335999 326.445404,756.759888 331.232727,756.684692 
	C342.164490,756.512939 351.361969,752.473389 357.360352,743.064331 
	C360.243408,738.541992 362.100861,733.365662 364.666290,729.366150 
	C366.478333,747.116333 379.377045,757.460144 398.668945,756.050171 
	C405.912598,755.955872 412.664612,753.929932 418.079529,749.204651 
	C429.719299,739.047241 436.433716,726.344666 435.198059,710.520569 
	C433.390503,687.372620 421.038605,672.437866 398.564331,664.816345 
	C398.427155,648.508606 398.289978,632.200928 399.071075,615.884583 
	C416.384003,615.899963 433.697174,615.969788 451.009796,615.903625 
	C457.826019,615.877625 464.154083,614.011658 469.718781,609.934570 
	C478.719910,603.339783 482.456055,594.367065 479.863647,584.773010 
	C477.424500,575.746094 471.148651,570.774231 462.328003,568.081787 
	C447.962830,563.696960 442.111450,555.675598 441.681610,540.628784 
	C441.486786,533.808289 441.620972,526.978882 441.546783,520.154175 
	C441.434601,509.835846 441.634979,499.496490 441.025635,489.206146 
	C440.426239,479.083313 432.897369,471.405334 422.770294,469.453400 
	C414.360962,467.832550 403.935638,473.143829 400.283356,481.724884 
	C398.648071,485.566986 398.003387,490.077942 397.941498,494.300507 
	C397.641296,514.769226 397.691345,535.243164 396.851318,555.609131 
	C386.265259,555.473511 375.679199,555.337891 364.935913,554.450745 
	C361.518494,543.459351 353.700226,537.299072 341.690063,537.007263 
	C327.745544,536.668335 313.783081,536.632263 299.839691,536.953918 
	C295.836304,537.046326 291.544281,538.172241 287.950134,539.960754 
	C276.427063,545.694946 271.908875,556.428345 273.407135,572.977661 
	C273.486603,594.128662 273.510834,615.280029 273.674622,636.430359 
	C273.734619,644.179993 277.249908,650.550049 284.676575,652.567017 
	C290.701965,654.203552 297.381378,653.431885 304.704041,654.001892 
	C314.808685,654.140930 324.913330,654.280029 335.127625,655.278259 
	C335.046112,664.519958 334.964600,673.761719 334.201935,682.737427 
	C325.329468,679.006042 316.091034,678.608582 306.762970,680.111938 
	C286.040070,683.451538 271.836151,702.327271 274.143768,722.826172 
	C276.428925,743.125671 295.322845,760.027405 316.858582,756.138733 
M283.458801,469.932220 
	C272.891052,480.456390 271.256226,494.302551 279.251129,505.569031 
	C287.051178,516.560913 301.279602,520.044617 313.886841,514.049255 
	C325.907898,508.332703 331.896576,495.111420 328.023193,482.330536 
	C321.869751,462.026306 297.629272,457.600006 283.458801,469.932220 
M519.538025,754.249512 
	C522.028198,751.635498 525.196716,749.395752 526.883484,746.338501 
	C532.278748,736.559509 525.180969,723.408936 514.024658,723.044800 
	C498.889343,722.550842 483.714813,722.686829 468.575439,723.150452 
	C461.815613,723.357483 456.628693,727.237122 454.072235,733.735840 
	C451.575287,740.083191 453.158234,745.781616 457.489227,750.896179 
	C460.983551,755.022705 465.479462,756.672974 470.744904,756.652588 
	C484.231323,756.600281 497.719391,756.653503 511.202881,756.429260 
	C513.775085,756.386536 516.329346,755.265381 519.538025,754.249512 
M523.471252,523.798706 
	C525.886292,514.190430 523.241028,505.621399 515.738708,500.361542 
	C507.481262,494.572266 498.698303,494.230438 489.879089,499.124603 
	C482.531769,503.201904 478.786407,511.770325 480.057709,520.956055 
	C481.350159,530.294617 489.890167,538.593567 499.479645,539.829895 
	C509.361816,541.103882 518.656677,535.116394 523.471252,523.798706 
M512.046387,570.765503 
	C512.057007,571.927246 511.951965,573.103638 512.096741,574.248474 
	C513.136353,582.470093 519.174255,588.749573 527.173584,589.997009 
	C535.207214,591.249756 543.761841,586.586548 547.194824,579.083252 
	C550.635071,571.564087 548.714722,563.601318 542.121887,558.048523 
	C531.035767,548.711304 516.045166,554.645447 512.046387,570.765503 
M642.053894,392.240875 
	C647.121338,397.188629 652.238342,397.843506 657.114136,394.168182 
	C661.815552,390.624298 662.911072,385.876099 660.263306,380.519836 
	C657.532593,374.995758 652.256409,372.411743 647.246277,374.144745 
	C641.950806,375.976471 639.086731,381.204010 640.143616,387.402344 
	C640.388611,388.839142 641.139526,390.189636 642.053894,392.240875 
M726.703857,390.607849 
	C731.096619,396.656158 737.463623,397.925049 743.026184,393.860840 
	C748.072449,390.173859 748.988647,383.484406 745.139404,378.432220 
	C742.016296,374.333130 736.117004,372.813324 731.730225,374.977692 
	C726.628540,377.494751 724.517151,383.370453 726.703857,390.607849 
M684.911499,391.549194 
	C689.012817,396.135956 692.700989,397.214630 697.624878,395.306213 
	C702.303833,393.492645 704.802734,390.059753 704.950439,385.085144 
	C705.089966,380.384705 702.015015,376.203125 697.253784,374.565338 
	C692.984253,373.096680 689.053833,373.792023 685.808289,377.098480 
	C682.377869,380.593414 681.968628,385.395081 684.911499,391.549194 
M370.277832,501.904877 
	C363.179291,499.656586 357.838318,502.802216 357.840454,509.230042 
	C357.841888,513.541992 360.745880,517.263428 364.975525,518.287292 
	C369.137970,519.294861 372.120209,517.481140 374.151764,514.035583 
	C376.451141,510.135742 375.296051,506.162506 370.277832,501.904877 
M545.169617,516.714294 
	C544.960449,521.542969 547.386719,524.392944 552.049866,524.836121 
	C556.370728,525.246887 559.547791,523.073669 560.647095,518.819946 
	C561.707336,514.717468 559.735535,511.661072 556.158264,509.749420 
	C551.917664,507.483276 547.610657,510.001892 545.169617,516.714294 
M422.909180,636.190735 
	C422.071899,639.202209 420.346161,642.329712 420.718872,645.183167 
	C420.955780,646.996887 424.261810,649.606995 426.277954,649.687134 
	C428.781158,649.786682 432.434937,648.277649 433.627014,646.286865 
	C434.803314,644.322449 434.362427,640.430603 433.137970,638.206360 
	C431.170959,634.633240 427.400177,634.095215 422.909180,636.190735 
z"/>
<path fill="#282239" opacity="1.000000" stroke="none" 
	d="
M751.331177,524.235229 
	C751.302368,536.538330 750.893738,548.855469 751.346802,561.140808 
	C751.846130,574.682678 745.196655,584.370789 734.648865,590.911743 
	C726.316467,596.078857 716.582825,598.986511 706.694336,602.954590 
	C703.478882,603.372559 701.033997,604.080566 698.603333,604.034851 
	C687.765259,603.830994 676.931152,603.411804 666.095642,603.070374 
	C623.927002,596.126709 588.143433,560.913513 581.816895,519.176697 
	C580.310608,509.239624 580.745972,498.899078 581.272034,488.795319 
	C581.748779,479.638275 588.409363,472.411926 596.500793,470.388672 
	C604.958435,468.273834 611.259399,471.375397 618.100464,481.803833 
	C618.327087,490.735138 617.405090,499.077179 618.898987,506.961395 
	C626.062256,544.764465 663.099365,568.947144 701.171265,561.000183 
	C722.778259,557.296326 738.826355,546.345093 749.195007,527.345093 
	C749.794312,526.246887 750.614075,525.269043 751.331177,524.235229 
z"/>
<path fill="#28233B" opacity="1.000000" stroke="none" 
	d="
M397.617310,555.715210 
	C397.691345,535.243164 397.641296,514.769226 397.941498,494.300507 
	C398.003387,490.077942 398.648071,485.566986 400.283356,481.724884 
	C403.935638,473.143829 414.360962,467.832550 422.770294,469.453400 
	C432.897369,471.405334 440.426239,479.083313 441.025635,489.206146 
	C441.634979,499.496490 441.434601,509.835846 441.546783,520.154175 
	C441.620972,526.978882 441.486786,533.808289 441.681610,540.628784 
	C442.111450,555.675598 447.962830,563.696960 462.328003,568.081787 
	C471.148651,570.774231 477.424500,575.746094 479.863647,584.773010 
	C482.456055,594.367065 478.719910,603.339783 469.718781,609.934570 
	C464.154083,614.011658 457.826019,615.877625 451.009796,615.903625 
	C433.697174,615.969788 416.384003,615.899963 398.489166,615.443237 
	C397.747101,610.418518 397.586975,605.835144 397.540955,600.770386 
	C397.642487,585.430969 397.629913,570.573120 397.617310,555.715210 
z"/>
<path fill="#FA6448" opacity="1.000000" stroke="none" 
	d="
M397.426849,601.251831 
	C397.586975,605.835144 397.747101,610.418518 398.030029,615.447510 
	C398.289978,632.200928 398.427155,648.508606 398.415466,665.470459 
	C398.105988,667.597839 397.807098,669.070984 397.805328,670.544434 
	C397.771454,698.999451 397.772308,727.454529 397.766022,755.909546 
	C379.377045,757.460144 366.478333,747.116333 364.643738,728.528015 
	C364.664398,704.262817 364.684998,680.835754 364.779297,657.408875 
	C364.791077,654.480469 363.757599,653.212097 360.687134,653.268066 
	C353.711029,653.395142 346.729340,653.201416 339.752350,653.304749 
	C338.169098,653.328247 336.595825,654.029663 335.017975,654.419067 
	C324.913330,654.280029 314.808685,654.140930 304.205688,653.471069 
	C306.425873,646.948914 308.189880,640.226929 312.086029,635.136963 
	C317.967316,627.453552 325.336395,620.909058 332.383209,613.754517 
	C343.518890,609.094238 354.344482,604.559937 365.608887,600.076538 
	C372.919159,600.075012 379.793976,599.873779 386.660583,600.030884 
	C390.256775,600.113159 393.838562,600.824524 397.426849,601.251831 
z"/>
<path fill="#454668" opacity="1.000000" stroke="none" 
	d="
M365.170105,600.025635 
	C354.344482,604.559937 343.518890,609.094238 331.947266,613.797974 
	C330.540497,614.016113 329.865784,613.994873 329.221161,614.123901 
	C313.778381,617.215515 300.322601,613.040161 289.029510,602.396545 
	C281.220001,595.036133 277.250122,585.409241 275.003021,575.031921 
	C274.782288,574.012451 274.163269,573.079224 273.729126,572.105957 
	C271.908875,556.428345 276.427063,545.694946 287.950134,539.960754 
	C291.544281,538.172241 295.836304,537.046326 299.839691,536.953918 
	C313.783081,536.632263 327.745544,536.668335 341.690063,537.007263 
	C353.700226,537.299072 361.518494,543.459351 364.990784,555.271851 
	C365.087158,570.737122 365.128632,585.381409 365.170105,600.025635 
z"/>
<path fill="#282239" opacity="1.000000" stroke="none" 
	d="
M587.078552,445.326355 
	C581.654419,450.215790 576.230286,455.105194 570.382446,459.586273 
	C569.957764,452.695892 570.173889,446.205231 569.916504,439.733368 
	C569.013000,417.015015 552.449768,398.741455 529.924377,395.738953 
	C524.434265,395.007141 518.830688,395.126343 513.226135,394.851624 
	C513.226135,375.251984 513.226135,356.158142 513.655884,337.066956 
	C516.072693,336.895325 518.070679,336.801758 520.045227,336.534454 
	C541.912292,333.574341 560.892883,339.353455 576.616394,355.108917 
	C578.009216,356.504578 579.553101,357.749451 581.052979,359.401794 
	C590.321716,369.534821 596.469910,380.931305 598.225891,394.363892 
	C599.939819,407.473846 600.594482,420.538361 593.733948,432.719788 
	C592.540833,434.838196 591.922180,437.280090 591.038147,439.572540 
	C591.038147,439.572540 590.995483,439.518585 590.685364,439.683044 
	C589.276367,441.673798 588.177429,443.500061 587.078552,445.326355 
z"/>
<path fill="#093663" opacity="1.000000" stroke="none" 
	d="
M411.977325,397.931671 
	C409.290222,390.070709 406.603119,382.209717 403.848389,373.640625 
	C403.785950,372.731323 403.791138,372.530151 403.882721,371.936218 
	C403.972900,367.750336 404.093109,363.952850 403.950897,360.165192 
	C403.774689,355.472137 403.381012,350.787292 402.974976,345.900940 
	C402.868622,345.703033 402.825562,345.255768 402.892273,344.774780 
	C402.969818,340.811401 403.022736,337.328552 402.982635,333.846741 
	C402.901489,326.798309 405.955933,321.085205 411.942474,317.946136 
	C415.815735,315.915131 420.706665,315.383240 425.201904,315.083191 
	C431.998199,314.629578 431.771118,314.976135 432.084320,321.579285 
	C432.520752,330.780670 432.835297,340.048279 434.280334,349.115692 
	C434.996399,353.608917 438.121765,357.718170 440.238831,362.100586 
	C440.320587,362.200043 440.238464,362.444061 440.175354,362.818787 
	C440.777954,364.118439 441.443665,365.043304 442.069611,365.969116 
	C442.029816,365.970032 442.066864,365.899567 442.032776,366.264954 
	C442.682892,367.414917 443.367096,368.199554 444.025360,368.991882 
	C443.999451,368.999573 444.020203,368.949615 444.001221,369.314056 
	C444.687317,370.436340 445.392365,371.194214 446.060211,371.970764 
	C446.023010,371.989441 446.054352,371.912292 446.044128,372.241150 
	C446.460907,372.990204 446.887878,373.410400 447.250610,373.821411 
	C447.186340,373.812225 447.266968,373.710449 447.208435,374.065552 
	C447.811035,374.932037 448.472168,375.443420 449.349060,376.057068 
	C449.823181,376.373810 449.973297,376.647644 450.024963,377.322113 
	C450.805359,378.358307 451.575989,379.053223 452.274536,379.771973 
	C452.202515,379.795776 452.234985,379.647583 452.273865,379.966064 
	C452.863953,380.527832 453.415161,380.771118 454.206726,381.095703 
	C454.638885,381.445587 454.830688,381.714203 455.115356,382.226196 
	C455.506287,382.628967 455.804352,382.788361 456.060059,382.958374 
	C456.017700,382.968964 456.066010,382.896210 456.070312,383.265442 
	C457.898193,384.687164 459.721771,385.739655 461.684753,386.778107 
	C461.824158,386.764069 462.007141,386.976257 462.049896,387.329742 
	C463.089081,388.102905 464.085541,388.522583 465.051544,388.965759 
	C465.021118,388.989197 465.027802,388.912659 465.189636,389.192688 
	C465.757660,389.586670 466.163849,389.700623 466.687775,389.758911 
	C466.805481,389.703278 466.994751,389.882141 467.154968,390.166626 
	C467.723785,390.566589 468.132385,390.682068 468.678467,390.759766 
	C468.816010,390.721985 469.020874,390.920441 469.160156,391.255127 
	C480.696808,397.610138 493.130737,397.982513 505.489868,397.421967 
	C510.005920,397.217133 511.044342,398.148224 511.083374,402.242767 
	C511.162323,410.530334 511.569061,418.814819 511.381927,427.100952 
	C493.996094,427.074524 477.068146,427.122711 460.142456,426.952332 
	C457.060028,426.921295 453.873993,426.354218 450.928741,425.423767 
	C438.907013,421.626038 428.134369,415.815155 419.975708,405.795563 
	C417.629303,402.913910 414.660675,400.538940 411.977325,397.931671 
z"/>
<path fill="#FC6349" opacity="1.000000" stroke="none" 
	d="
M665.826477,603.355957 
	C676.931152,603.411804 687.765259,603.830994 698.603333,604.034851 
	C701.033997,604.080566 703.478882,603.372559 706.298218,603.047974 
	C708.257751,603.404602 709.829895,603.959656 711.415710,604.001526 
	C716.411987,604.133484 721.414551,604.006409 726.412476,604.099854 
	C739.337219,604.341370 748.407166,611.905151 750.686096,624.259338 
	C752.737061,635.377625 746.373047,645.937439 734.794861,650.640259 
	C733.563110,651.140686 732.347351,651.680542 730.461914,652.522766 
	C708.170715,652.776855 686.541809,652.710266 664.762573,652.467285 
	C664.084656,652.443665 663.557190,652.596436 662.825867,652.873779 
	C662.622070,652.998352 662.211975,653.243408 661.900635,653.102661 
	C661.370056,652.904846 661.150818,652.847717 660.615967,652.541504 
	C651.196716,652.172302 642.093079,652.052185 632.923950,651.578247 
	C630.248535,649.093201 629.406616,646.327515 630.169373,643.123901 
	C630.528381,641.616089 631.223999,640.188354 631.810059,638.774658 
	C631.853027,638.824951 631.726807,638.864746 632.023682,638.768799 
	C632.548218,638.120667 632.775818,637.568420 633.000488,637.008118 
	C632.997559,637.000000 633.014221,637.001892 633.340454,636.950439 
	C634.208862,635.294006 634.751038,633.689026 635.250244,631.682007 
	C635.411682,630.511353 635.616150,629.742798 636.095947,628.805664 
	C637.121460,624.828796 637.490601,621.146179 633.055664,618.870300 
	C632.917236,618.738586 632.899780,618.356750 632.836792,618.069824 
	C632.484558,617.535400 632.195374,617.287903 631.925415,617.057373 
	C631.944763,617.074280 631.894836,617.096436 631.938354,616.696655 
	C633.181580,615.527405 634.341309,614.684143 635.590637,614.006104 
	C637.356140,613.047974 639.187927,612.211975 640.991394,611.323730 
	C649.180054,608.763000 657.368652,606.202271 665.826477,603.355957 
z"/>
<path fill="#FC6349" opacity="1.000000" stroke="none" 
	d="
M402.825562,345.255768 
	C402.825562,345.255768 402.868622,345.703033 402.886200,346.351532 
	C402.882141,348.805084 402.777374,350.613708 402.853821,352.414581 
	C403.135498,359.054077 403.477203,365.691040 403.796326,372.328949 
	C403.791138,372.530151 403.785950,372.731323 403.745636,373.226135 
	C403.455444,378.306061 403.018494,383.090881 402.978363,387.878998 
	C402.840332,404.346924 403.077942,420.821136 402.722534,437.283234 
	C402.365631,453.814453 387.324921,465.142639 371.891998,460.936676 
	C361.831879,458.194977 354.327850,448.895874 354.105011,437.604340 
	C353.757141,419.978485 353.975281,402.341492 354.279114,383.981384 
	C360.194580,356.557861 380.017853,345.418213 402.825562,345.255768 
z"/>
<path fill="#2EC1BE" opacity="1.000000" stroke="none" 
	d="
M584.352356,699.538452 
	C579.220703,699.650574 574.089050,699.862732 568.957458,699.858154 
	C541.895020,699.834167 514.832642,699.755432 487.267792,699.175049 
	C486.984863,695.837341 486.974579,692.980103 487.458527,690.209106 
	C493.942505,653.084778 537.638611,623.798096 573.856445,635.519348 
	C573.912720,648.968384 574.399658,661.973755 573.785828,674.927002 
	C573.301147,685.157349 575.399048,693.657410 584.352356,699.538452 
z"/>
<path fill="#FA6347" opacity="1.000000" stroke="none" 
	d="
M455.022491,381.982788 
	C454.830688,381.714203 454.638885,381.445587 454.108521,380.810638 
	C453.258270,380.178711 452.746643,379.913147 452.234985,379.647583 
	C452.234985,379.647583 452.202515,379.795776 452.232117,379.458099 
	C451.512909,378.407227 450.764069,377.694031 450.015228,376.980835 
	C449.973297,376.647644 449.823181,376.373810 449.308899,375.740967 
	C448.457672,374.785187 447.862335,374.247803 447.266968,373.710449 
	C447.266968,373.710449 447.186340,373.812225 447.236755,373.510193 
	C446.876221,372.776215 446.465302,372.344269 446.054352,371.912292 
	C446.054352,371.912292 446.023010,371.989441 446.033081,371.650665 
	C445.368835,370.524445 444.694519,369.737030 444.020203,368.949615 
	C444.020203,368.949615 443.999451,368.999573 444.017456,368.680176 
	C443.968201,367.952362 443.900909,367.543945 443.900146,367.077667 
	C443.966644,367.019806 444.097809,366.901978 444.455994,366.928619 
	C446.209045,366.637238 447.603912,366.319214 449.004700,366.371948 
	C449.259003,367.514008 449.318604,368.432648 449.786774,369.032379 
	C452.589813,372.623383 458.300140,374.224548 457.445679,380.393616 
	C457.400421,380.720367 459.551453,381.956848 460.151672,381.668823 
	C463.934906,379.853302 465.557007,382.254883 467.384186,384.802338 
	C468.427094,386.256317 469.672333,388.116730 471.189941,388.565887 
	C474.529083,389.554047 477.673157,394.076843 481.380188,390.730408 
	C487.432312,385.266998 495.191345,386.074768 502.136230,384.903381 
	C508.145782,383.889709 511.207703,382.954803 510.930786,376.610931 
	C510.535797,367.563354 509.634125,358.538727 509.008514,349.500183 
	C508.283112,339.018555 512.408203,328.467163 508.425232,317.927521 
	C507.990662,316.777618 510.778564,314.395538 512.166565,312.660767 
	C512.198547,312.620728 513.362976,313.486633 513.735535,314.231140 
	C513.390015,322.042999 513.308105,329.553680 513.226135,337.064331 
	C513.226135,356.158142 513.226135,375.251984 513.226135,394.851624 
	C518.830688,395.126343 524.434265,395.007141 529.924377,395.738953 
	C552.449768,398.741455 569.013000,417.015015 569.916504,439.733368 
	C570.173889,446.205231 569.957764,452.695892 570.042847,459.649658 
	C558.199097,468.813263 544.798889,473.880219 530.264648,475.884796 
	C524.852600,476.631287 519.338135,476.635437 513.420288,476.479492 
	C512.940735,466.879517 512.911255,457.778168 512.987000,448.252502 
	C513.017029,441.621429 512.941895,435.414612 512.919189,428.892517 
	C512.935425,428.154053 512.899170,427.730865 512.981934,426.820923 
	C513.111877,417.526001 513.050903,408.716797 513.174927,399.910187 
	C513.215332,397.040558 512.489624,395.656921 509.268646,395.793701 
	C495.599365,396.374176 482.054657,395.691650 469.020874,390.920441 
	C469.020874,390.920441 468.816010,390.721985 468.497040,390.496033 
	C467.783630,390.140778 467.389191,390.011444 466.994751,389.882141 
	C466.994751,389.882141 466.805481,389.703278 466.505493,389.498535 
	C465.812927,389.166748 465.420380,389.039703 465.027802,388.912659 
	C465.027802,388.912659 465.021118,388.989197 464.905670,388.681091 
	C463.862518,387.907410 462.934845,387.441833 462.007141,386.976257 
	C462.007141,386.976257 461.824158,386.764069 461.524353,386.468933 
	C459.505035,385.081268 457.785522,383.988739 456.066010,382.896210 
	C456.066010,382.896210 456.017700,382.968964 455.978821,382.705444 
	C455.634094,382.288879 455.328308,382.135834 455.022491,381.982788 
z"/>
<path fill="#0C3866" opacity="1.000000" stroke="none" 
	d="
M573.812378,635.053223 
	C537.638611,623.798096 493.942505,653.084778 487.458527,690.209106 
	C486.974579,692.980103 486.984863,695.837341 486.799377,699.072876 
	C480.862030,699.632263 474.798462,700.502625 468.938751,699.761414 
	C457.002136,698.251648 449.223114,686.374512 451.527374,673.766907 
	C454.607971,656.911865 464.239227,643.903137 476.775116,632.906860 
	C497.703491,614.548767 521.686035,606.639709 549.382385,613.061279 
	C558.448547,615.163269 566.583618,619.302246 572.818604,627.184937 
	C572.999573,627.623108 573.035339,627.941956 573.017639,628.350464 
	C573.270752,630.856995 573.541565,632.955139 573.812378,635.053223 
z"/>
<path fill="#FA6347" opacity="1.000000" stroke="none" 
	d="
M681.002502,289.228363 
	C688.633301,277.300049 699.603210,271.417145 713.682495,271.852020 
	C732.943237,272.446930 748.058655,286.559448 751.511230,306.733826 
	C755.542603,330.290344 740.452026,352.369385 717.949890,355.228424 
	C701.460693,357.323486 689.305115,350.075745 680.252808,335.789612 
	C679.730957,328.310089 679.531616,321.436646 679.506836,314.159424 
	C680.121704,305.579895 680.562134,297.404144 681.002502,289.228363 
M715.236206,298.409729 
	C714.077454,298.490326 712.906311,298.489624 711.762024,298.664642 
	C704.194946,299.821716 698.781372,307.062164 699.590820,314.894226 
	C700.425842,322.972626 706.381104,328.350037 714.274536,328.153076 
	C721.706604,327.967651 728.114258,322.155182 728.839111,314.941345 
	C729.623352,307.137543 724.709656,300.828461 715.236206,298.409729 
z"/>
<path fill="#28233B" opacity="1.000000" stroke="none" 
	d="
M402.892273,344.774780 
	C380.017853,345.418213 360.194580,356.557861 354.374756,383.505737 
	C354.101166,359.812592 354.057404,335.867188 354.368835,311.578613 
	C356.855591,313.072601 358.730286,315.454132 361.182739,316.611237 
	C364.352509,318.106750 368.111511,319.717957 371.389618,319.334930 
	C378.200043,318.539093 382.889282,314.145844 384.539673,307.350342 
	C386.208954,300.477142 383.511627,294.846375 378.132355,290.657166 
	C372.686462,286.416077 366.749634,286.715607 360.804810,289.811096 
	C359.339630,290.574005 357.861053,291.311279 356.388641,292.060333 
	C360.467651,280.751007 372.766205,272.349609 385.934723,271.981476 
	C390.429565,271.855804 394.930725,271.935059 399.428894,271.950989 
	C418.719727,272.019257 432.933014,285.385529 434.195984,304.641022 
	C434.272278,305.804199 434.291260,306.971100 434.235229,308.977570 
	C433.658508,327.499573 432.341187,345.277527 440.157104,362.001160 
	C438.121765,357.718170 434.996399,353.608917 434.280334,349.115692 
	C432.835297,340.048279 432.520752,330.780670 432.084320,321.579285 
	C431.771118,314.976135 431.998199,314.629578 425.201904,315.083191 
	C420.706665,315.383240 415.815735,315.915131 411.942474,317.946136 
	C405.955933,321.085205 402.901489,326.798309 402.982635,333.846741 
	C403.022736,337.328552 402.969818,340.811401 402.892273,344.774780 
z"/>
<path fill="#FA863A" opacity="1.000000" stroke="none" 
	d="
M700.740234,560.993530 
	C663.099365,568.947144 626.062256,544.764465 618.898987,506.961395 
	C617.405090,499.077179 618.327087,490.735138 618.233765,482.113586 
	C620.202026,483.220367 622.259094,484.645416 623.914062,486.441132 
	C645.963379,510.365997 672.911926,518.283508 704.480713,511.274963 
	C704.964966,511.167419 705.470825,511.157410 706.460083,511.430603 
	C712.449524,521.847961 715.663879,532.405212 710.801514,543.532043 
	C708.128052,549.649841 704.137146,555.191895 700.740234,560.993530 
z"/>
<path fill="#282239" opacity="1.000000" stroke="none" 
	d="
M330.773865,357.051239 
	C330.765167,377.030701 331.025208,397.015137 330.658020,416.988007 
	C330.391022,431.511383 317.283295,443.599976 302.722198,443.601044 
	C286.874603,443.602264 274.063324,431.821106 273.719849,416.574249 
	C273.404816,402.591034 273.451721,388.599609 273.932251,374.231201 
	C283.172882,373.892731 291.820892,374.003601 300.467865,373.950012 
	C305.289917,373.920166 309.260498,370.768921 309.926605,366.765320 
	C311.085876,359.797760 314.199738,357.117310 321.293365,357.041229 
	C324.453125,357.007355 327.613708,357.045685 330.773865,357.051239 
z"/>
<path fill="#454668" opacity="1.000000" stroke="none" 
	d="
M316.056000,755.930176 
	C295.322845,760.027405 276.428925,743.125671 274.143768,722.826172 
	C271.836151,702.327271 286.040070,683.451538 306.762970,680.111938 
	C316.091034,678.608582 325.329468,679.006042 334.707062,683.258301 
	C335.412079,684.405212 335.785156,685.030884 335.786438,685.657288 
	C335.814148,699.450073 335.976410,713.245789 335.745605,727.034851 
	C335.514282,740.853394 328.884888,750.567810 316.056000,755.930176 
z"/>
<path fill="#065DA8" opacity="1.000000" stroke="none" 
	d="
M664.912964,652.643616 
	C686.541809,652.710266 708.170715,652.776855 730.232483,652.801086 
	C740.556580,655.198914 747.225769,661.177246 749.671875,671.117981 
	C751.930237,680.296021 749.210754,688.199646 742.106995,694.489746 
	C737.511963,698.558411 731.961853,699.941650 725.976074,699.953125 
	C705.035034,699.993103 684.093933,700.023926 662.626831,700.004150 
	C662.100769,699.950134 661.963074,699.613037 662.022949,699.181030 
	C662.125854,683.580444 662.168884,668.411926 662.211975,653.243408 
	C662.211975,653.243408 662.622070,652.998352 663.137573,652.994019 
	C664.072998,652.874268 664.492981,652.758911 664.912964,652.643616 
z"/>
<path fill="#065DA8" opacity="1.000000" stroke="none" 
	d="
M512.862915,427.307678 
	C512.899170,427.730865 512.935425,428.154053 512.670776,429.188721 
	C512.540466,436.092407 512.711182,442.384583 512.881836,448.676788 
	C512.911255,457.778168 512.940735,466.879517 512.952026,476.442688 
	C474.718933,476.476715 445.354980,459.893738 425.232758,427.648590 
	C419.656342,418.712555 416.286987,408.399261 411.941162,398.324768 
	C414.660675,400.538940 417.629303,402.913910 419.975708,405.795563 
	C428.134369,415.815155 438.907013,421.626038 450.928741,425.423767 
	C453.873993,426.354218 457.060028,426.921295 460.142456,426.952332 
	C477.068146,427.122711 493.996094,427.074524 511.636047,427.162903 
	C512.520203,427.252228 512.691589,427.279968 512.862915,427.307678 
z"/>
<path fill="#2EC1BE" opacity="1.000000" stroke="none" 
	d="
M631.991760,272.342224 
	C634.075012,272.266052 636.158264,272.189880 638.944519,272.422974 
	C641.395752,272.590363 643.143982,272.448486 644.892212,272.306641 
	C645.700806,272.242188 646.509460,272.177734 647.995483,272.436798 
	C656.388489,274.875122 665.185486,273.263428 671.424194,280.519104 
	C674.279419,283.839783 677.383545,286.408142 677.071960,291.332520 
	C676.772888,296.060089 677.020447,300.821411 677.004150,305.567871 
	C676.980591,312.414703 676.409973,312.998840 669.614807,313.000427 
	C643.775269,313.006439 617.935669,312.995789 592.096130,312.998077 
	C583.567261,312.998840 583.567261,313.008118 580.906067,305.631836 
	C580.902405,304.510864 580.998108,303.759827 581.451172,302.930786 
	C583.813232,297.510864 585.818054,292.168976 587.822876,286.827087 
	C587.822815,286.827087 587.894592,286.918884 588.130981,286.790924 
	C588.559998,286.092438 588.752625,285.521881 588.945251,284.951355 
	C588.945251,284.951355 588.996948,284.990723 589.356201,284.976959 
	C590.395752,283.890717 591.076111,282.818237 591.756470,281.745728 
	C591.756531,281.745758 591.845154,281.782196 592.081116,281.747498 
	C592.493713,281.399414 592.670410,281.085999 592.847046,280.772583 
	C592.847046,280.772552 592.861877,280.885345 593.150452,280.805359 
	C594.275269,279.794830 595.111450,278.864227 595.947632,277.933624 
	C595.947632,277.933624 596.005554,277.988983 596.340210,277.985779 
	C597.788025,277.222046 598.901123,276.461456 600.014221,275.700897 
	C600.014221,275.700897 600.191650,275.610779 600.731689,275.744446 
	C606.286316,275.248444 611.286804,274.439148 616.319885,274.047638 
	C620.129578,273.751282 623.989197,274.133423 627.809143,273.912323 
	C629.228882,273.830109 630.598999,272.890717 631.991760,272.342224 
z"/>
<path fill="#0C3866" opacity="1.000000" stroke="none" 
	d="
M716.980652,416.726685 
	C721.453186,416.574951 725.988403,415.874573 730.386169,416.377075 
	C742.327637,417.741516 750.644592,428.311310 748.152588,440.246613 
	C743.849060,460.857574 731.468445,475.780029 712.088806,483.748566 
	C703.994751,487.076721 694.684265,487.446533 685.553345,488.669342 
	C685.806946,485.459595 686.694397,482.772552 687.017700,480.019257 
	C688.714905,465.565826 683.829163,453.414398 674.216797,443.098175 
	C687.154663,445.493286 698.963196,444.472992 707.443909,433.789856 
	C711.442505,428.752808 713.851440,422.453857 716.980652,416.726685 
z"/>
<path fill="#454565" opacity="1.000000" stroke="none" 
	d="
M573.856445,635.519348 
	C573.541565,632.955139 573.270752,630.856995 573.332397,628.506226 
	C574.281616,629.212952 575.091675,630.099304 575.486145,631.142700 
	C581.085693,645.955017 596.789917,655.241699 613.467896,652.732361 
	C614.134888,652.763916 614.519348,652.740601 615.197998,652.800293 
	C615.690002,652.834351 615.887878,652.785522 616.544739,652.787292 
	C622.305847,652.833069 627.607849,652.828125 633.182983,652.963562 
	C633.637573,653.198669 633.819092,653.293396 633.991455,653.832336 
	C633.982422,669.009277 633.982422,683.741943 633.982422,698.425537 
	C637.077637,698.938232 639.473206,699.335022 641.425537,699.827637 
	C638.531067,700.043152 636.079651,700.162903 633.628296,700.282654 
	C620.318787,700.144592 607.009155,700.011963 593.699768,699.864258 
	C590.870789,699.832886 588.042480,699.746338 584.783081,699.611816 
	C575.399048,693.657410 573.301147,685.157349 573.785828,674.927002 
	C574.399658,661.973755 573.912720,648.968384 573.856445,635.519348 
z"/>
<path fill="#34BCBE" opacity="1.000000" stroke="none" 
	d="
M316.457275,756.034424 
	C328.884888,750.567810 335.514282,740.853394 335.745605,727.034851 
	C335.976410,713.245789 335.814148,699.450073 335.786438,685.657288 
	C335.785156,685.030884 335.412079,684.405212 335.047638,683.391357 
	C334.964600,673.761719 335.046112,664.519958 335.072815,654.848633 
	C336.595825,654.029663 338.169098,653.328247 339.752350,653.304749 
	C346.729340,653.201416 353.711029,653.395142 360.687134,653.268066 
	C363.757599,653.212097 364.791077,654.480469 364.779297,657.408875 
	C364.684998,680.835754 364.664398,704.262817 364.522003,728.087708 
	C362.100861,733.365662 360.243408,738.541992 357.360352,743.064331 
	C351.361969,752.473389 342.164490,756.512939 331.232727,756.684692 
	C326.445404,756.759888 321.650208,756.335999 316.457275,756.034424 
z"/>
<path fill="#FA863A" opacity="1.000000" stroke="none" 
	d="
M298.257568,329.771057 
	C295.780975,328.419983 293.274261,327.121063 290.832916,325.709076 
	C278.942169,318.831848 272.379333,304.352631 275.828857,292.682312 
	C279.582245,279.983978 291.353027,271.633881 304.948822,272.024872 
	C318.916321,272.426544 330.701355,284.001251 330.989288,297.969299 
	C331.202057,308.289520 330.980530,318.618683 330.424347,329.395538 
	C319.350006,329.821808 308.803772,329.796448 298.257568,329.771057 
z"/>
<path fill="#282239" opacity="1.000000" stroke="none" 
	d="
M716.586609,416.607300 
	C713.851440,422.453857 711.442505,428.752808 707.443909,433.789856 
	C698.963196,444.472992 687.154663,445.493286 673.902588,442.957611 
	C671.938538,442.222321 670.722046,441.581512 669.465393,440.919586 
	C662.164856,459.734100 647.581970,465.515167 631.951050,456.196014 
	C629.857727,451.908508 626.959839,447.823517 625.820129,443.295959 
	C622.246948,429.100494 632.017151,416.774689 646.789551,416.636719 
	C669.922302,416.420593 693.058105,416.521393 716.586609,416.607300 
z"/>
<path fill="#BB3F3F" opacity="1.000000" stroke="none" 
	d="
M633.648865,700.729004 
	C636.079651,700.162903 638.531067,700.043152 641.895752,699.892456 
	C645.584595,699.833435 648.360046,699.805298 651.559937,699.876465 
	C654.623047,699.921631 657.261658,699.867554 660.251709,699.867859 
	C661.056396,699.819153 661.509766,699.716125 661.963074,699.613037 
	C661.963074,699.613037 662.100769,699.950134 662.186523,700.110596 
	C662.454834,704.215393 662.204773,708.240051 662.918274,712.085938 
	C664.078369,718.339478 670.052856,722.908447 676.448181,722.980957 
	C682.390564,723.048279 688.334473,722.981018 695.017090,723.273926 
	C695.756470,734.252380 695.756470,744.929810 695.756470,756.056274 
	C682.313538,756.056274 669.400452,756.056274 656.487305,756.056274 
	C643.956787,755.742249 634.556763,746.968506 633.922058,734.085815 
	C633.382690,723.138062 633.720032,712.147095 633.648865,700.729004 
z"/>
<path fill="#28233B" opacity="1.000000" stroke="none" 
	d="
M398.217468,755.979858 
	C397.772308,727.454529 397.771454,698.999451 397.805328,670.544434 
	C397.807098,669.070984 398.105988,667.597839 398.602509,665.807800 
	C421.038605,672.437866 433.390503,687.372620 435.198059,710.520569 
	C436.433716,726.344666 429.719299,739.047241 418.079529,749.204651 
	C412.664612,753.929932 405.912598,755.955872 398.217468,755.979858 
z"/>
<path fill="#065DA8" opacity="1.000000" stroke="none" 
	d="
M283.728333,469.694702 
	C297.629272,457.600006 321.869751,462.026306 328.023193,482.330536 
	C331.896576,495.111420 325.907898,508.332703 313.886841,514.049255 
	C301.279602,520.044617 287.051178,516.560913 279.251129,505.569031 
	C271.256226,494.302551 272.891052,480.456390 283.728333,469.694702 
z"/>
<path fill="#28233B" opacity="1.000000" stroke="none" 
	d="
M519.214966,754.445679 
	C516.329346,755.265381 513.775085,756.386536 511.202881,756.429260 
	C497.719391,756.653503 484.231323,756.600281 470.744904,756.652588 
	C465.479462,756.672974 460.983551,755.022705 457.489227,750.896179 
	C453.158234,745.781616 451.575287,740.083191 454.072235,733.735840 
	C456.628693,727.237122 461.815613,723.357483 468.575439,723.150452 
	C483.714813,722.686829 498.889343,722.550842 514.024658,723.044800 
	C525.180969,723.408936 532.278748,736.559509 526.883484,746.338501 
	C525.196716,749.395752 522.028198,751.635498 519.214966,754.445679 
z"/>
<path fill="#454668" opacity="1.000000" stroke="none" 
	d="
M644.065613,352.686646 
	C636.064941,352.795685 628.064270,352.904724 619.290283,352.903137 
	C616.010437,350.358521 613.354614,348.057617 611.035400,345.456665 
	C608.154907,342.226166 604.665039,341.136383 600.441772,340.892700 
	C594.341125,340.540649 588.984253,341.765533 584.384521,345.970856 
	C583.627869,346.662567 582.276978,346.704285 581.154541,346.577118 
	C581.053894,337.122437 581.055725,328.136169 580.910645,319.152283 
	C580.866760,316.433228 581.288391,314.825287 584.637024,314.846100 
	C611.756287,315.014801 638.876343,315.043854 665.954956,315.463745 
	C664.950317,316.587463 664.043518,317.449615 663.012939,318.122192 
	C659.888489,320.161255 656.177185,321.607941 653.663391,324.218475 
	C646.078979,332.094910 642.790283,341.688446 644.065613,352.686646 
z"/>
<path fill="#40BAB9" opacity="1.000000" stroke="none" 
	d="
M665.996216,315.115479 
	C638.876343,315.043854 611.756287,315.014801 584.637024,314.846100 
	C581.288391,314.825287 580.866760,316.433228 580.910645,319.152283 
	C581.055725,328.136169 581.053894,337.122437 581.090454,347.028259 
	C581.057251,351.653931 581.042053,355.359131 581.026855,359.064362 
	C579.553101,357.749451 578.009216,356.504578 576.616394,355.108917 
	C560.892883,339.353455 541.912292,333.574341 520.045227,336.534454 
	C518.070679,336.801758 516.072693,336.895325 513.655884,337.066956 
	C513.308105,329.553680 513.390015,322.042999 514.193726,314.333557 
	C520.556885,313.964630 526.198303,313.794525 532.210083,313.834259 
	C544.963806,314.089569 557.347046,314.157440 569.730286,314.173126 
	C578.840027,314.184692 578.840088,314.154297 581.005432,306.001801 
	C583.567261,313.008118 583.567261,312.998840 592.096130,312.998077 
	C617.935669,312.995789 643.775269,313.006439 669.614807,313.000427 
	C676.409973,312.998840 676.980591,312.414703 677.004150,305.567871 
	C677.020447,300.821411 676.772888,296.060089 677.071960,291.332520 
	C677.383545,286.408142 674.279419,283.839783 671.424194,280.519104 
	C665.185486,273.263428 656.388489,274.875122 648.391907,272.536316 
	C662.683105,270.386993 673.620056,275.551300 680.692017,289.043640 
	C680.562134,297.404144 680.121704,305.579895 679.101318,314.214478 
	C674.346252,314.820679 670.171265,314.968079 665.996216,315.115479 
z"/>
<path fill="#BB3F3F" opacity="1.000000" stroke="none" 
	d="
M613.185425,652.677490 
	C596.789917,655.241699 581.085693,645.955017 575.486145,631.142700 
	C575.091675,630.099304 574.281616,629.212952 573.350098,628.097778 
	C573.035339,627.941956 572.999573,627.623108 573.025452,627.466003 
	C573.311035,625.737366 573.789368,624.166931 573.796997,622.594177 
	C573.888123,603.804626 573.909607,585.014709 573.948059,566.224915 
	C573.952026,564.282043 573.948547,562.339233 573.948547,560.577759 
	C579.108276,569.621338 583.726013,578.945068 589.473389,587.510803 
	C598.945251,601.627258 612.789368,609.287598 629.989624,612.075439 
	C630.539978,612.097168 630.806091,612.128113 630.668335,612.385864 
	C630.015381,613.421204 629.500122,614.198730 628.614746,614.896851 
	C621.961609,611.468262 616.357178,612.960999 611.402527,617.480835 
	C606.774292,621.703064 605.733154,627.322876 607.361572,632.988342 
	C609.083862,638.980103 614.002930,641.778809 620.014465,642.658875 
	C620.993469,642.802246 621.986633,642.849304 622.742798,643.244507 
	C616.154907,644.670288 614.266724,646.518433 613.185425,652.677490 
z"/>
<path fill="#34BCBE" opacity="1.000000" stroke="none" 
	d="
M701.171265,561.000183 
	C704.137146,555.191895 708.128052,549.649841 710.801514,543.532043 
	C715.663879,532.405212 712.449524,521.847961 706.857666,511.405212 
	C723.706909,505.732178 739.175537,498.069763 749.935059,482.933319 
	C750.506897,483.141663 751.078735,483.349976 751.650574,483.558289 
	C751.650574,496.813293 751.650574,510.068298 751.490906,523.779297 
	C750.614075,525.269043 749.794312,526.246887 749.195007,527.345093 
	C738.826355,546.345093 722.778259,557.296326 701.171265,561.000183 
z"/>
<path fill="#282239" opacity="1.000000" stroke="none" 
	d="
M273.568115,572.541809 
	C274.163269,573.079224 274.782288,574.012451 275.003021,575.031921 
	C277.250122,585.409241 281.220001,595.036133 289.029510,602.396545 
	C300.322601,613.040161 313.778381,617.215515 329.221161,614.123901 
	C329.865784,613.994873 330.540497,614.016113 331.637146,613.923950 
	C325.336395,620.909058 317.967316,627.453552 312.086029,635.136963 
	C308.189880,640.226929 306.425873,646.948914 303.739044,653.334290 
	C297.381378,653.431885 290.701965,654.203552 284.676575,652.567017 
	C277.249908,650.550049 273.734619,644.179993 273.674622,636.430359 
	C273.510834,615.280029 273.486603,594.128662 273.568115,572.541809 
z"/>
<path fill="#454668" opacity="1.000000" stroke="none" 
	d="
M297.845398,329.841431 
	C308.803772,329.796448 319.350006,329.821808 330.349976,329.849487 
	C330.856140,338.609070 330.908539,347.366394 330.867432,356.587463 
	C327.613708,357.045685 324.453125,357.007355 321.293365,357.041229 
	C314.199738,357.117310 311.085876,359.797760 309.926605,366.765320 
	C309.260498,370.768921 305.289917,373.920166 300.467865,373.950012 
	C291.820892,374.003601 283.172882,373.892731 274.022156,373.819122 
	C273.067535,364.493439 272.637482,355.219910 276.918579,346.494537 
	C281.201508,337.765442 287.886414,332.088715 297.845398,329.841431 
z"/>
<path fill="#095A9F" opacity="1.000000" stroke="none" 
	d="
M581.052979,359.401794 
	C581.042053,355.359131 581.057251,351.653931 581.136597,347.497559 
	C582.276978,346.704285 583.627869,346.662567 584.384521,345.970856 
	C588.984253,341.765533 594.341125,340.540649 600.441772,340.892700 
	C604.665039,341.136383 608.154907,342.226166 611.035400,345.456665 
	C613.354614,348.057617 616.010437,350.358521 618.831055,352.932007 
	C619.041565,359.888794 619.040100,366.709473 618.815491,373.522858 
	C618.059998,396.433777 609.216309,416.423218 596.342529,434.896851 
	C595.132812,436.632843 593.305969,437.938782 591.401855,439.508453 
	C591.922180,437.280090 592.540833,434.838196 593.733948,432.719788 
	C600.594482,420.538361 599.939819,407.473846 598.225891,394.363892 
	C596.469910,380.931305 590.321716,369.534821 581.052979,359.401794 
z"/>
<path fill="#FA863A" opacity="1.000000" stroke="none" 
	d="
M656.787231,756.239990 
	C669.400452,756.056274 682.313538,756.056274 695.756470,756.056274 
	C695.756470,744.929810 695.756470,734.252380 695.500427,723.248230 
	C708.171265,722.791931 721.121155,722.144287 734.016663,722.719299 
	C742.266357,723.087097 748.343994,730.556274 748.693848,738.511108 
	C749.025696,746.055786 743.245178,753.601746 735.344482,755.733276 
	C733.437744,756.247681 731.409607,756.547424 729.437256,756.547546 
	C705.320557,756.549377 681.203918,756.476929 656.787231,756.239990 
z"/>
<path fill="#FA6448" opacity="1.000000" stroke="none" 
	d="
M523.341248,524.170654 
	C518.656677,535.116394 509.361816,541.103882 499.479645,539.829895 
	C489.890167,538.593567 481.350159,530.294617 480.057709,520.956055 
	C478.786407,511.770325 482.531769,503.201904 489.879089,499.124603 
	C498.698303,494.230438 507.481262,494.572266 515.738708,500.361542 
	C523.241028,505.621399 525.886292,514.190430 523.341248,524.170654 
z"/>
<path fill="#34BCBE" opacity="1.000000" stroke="none" 
	d="
M365.608917,600.076538 
	C365.128632,585.381409 365.087158,570.737122 365.069397,555.647583 
	C375.679199,555.337891 386.265259,555.473511 397.234314,555.662170 
	C397.629913,570.573120 397.642487,585.430969 397.540955,600.770386 
	C393.838562,600.824524 390.256775,600.113159 386.660583,600.030884 
	C379.793976,599.873779 372.919159,600.075012 365.608917,600.076538 
z"/>
<path fill="#34BCBE" opacity="1.000000" stroke="none" 
	d="
M631.954346,456.550049 
	C647.581970,465.515167 662.164856,459.734100 669.465393,440.919586 
	C670.722046,441.581512 671.938538,442.222321 673.469299,443.003693 
	C683.829163,453.414398 688.714905,465.565826 687.017700,480.019257 
	C686.694397,482.772552 685.806946,485.459595 685.103882,488.555359 
	C663.598389,490.362427 639.696167,475.936768 631.954346,456.550049 
z"/>
<path fill="#28233B" opacity="1.000000" stroke="none" 
	d="
M512.084595,570.344727 
	C516.045166,554.645447 531.035767,548.711304 542.121887,558.048523 
	C548.714722,563.601318 550.635071,571.564087 547.194824,579.083252 
	C543.761841,586.586548 535.207214,591.249756 527.173584,589.997009 
	C519.174255,588.749573 513.136353,582.470093 512.096741,574.248474 
	C511.951965,573.103638 512.057007,571.927246 512.084595,570.344727 
z"/>
<path fill="#0C3866" opacity="1.000000" stroke="none" 
	d="
M665.954956,315.463745 
	C670.171265,314.968079 674.346252,314.820679 678.926758,314.618225 
	C679.531616,321.436646 679.730957,328.310089 679.947021,335.665802 
	C674.491699,349.460541 668.988953,353.089478 654.457764,352.965515 
	C651.296448,352.938538 648.135071,352.905243 644.519653,352.780762 
	C642.790283,341.688446 646.078979,332.094910 653.663391,324.218475 
	C656.177185,321.607941 659.888489,320.161255 663.012939,318.122192 
	C664.043518,317.449615 664.950317,316.587463 665.954956,315.463745 
z"/>
<path fill="#34BCBE" opacity="1.000000" stroke="none" 
	d="
M578.938477,722.409973 
	C584.403076,722.325806 589.888428,721.902588 595.327820,722.233765 
	C604.418640,722.787170 611.261536,730.575928 611.094604,739.599487 
	C610.924500,748.793701 603.505615,756.252625 593.762085,756.684814 
	C589.136475,756.890015 584.486572,756.548523 579.406250,755.946533 
	C578.955933,744.428833 578.947205,733.419434 578.938477,722.409973 
z"/>
<path fill="#FA863A" opacity="1.000000" stroke="none" 
	d="
M580.906067,305.631836 
	C578.840088,314.154297 578.840027,314.184692 569.730286,314.173126 
	C557.347046,314.157440 544.963806,314.089569 532.248718,313.425476 
	C531.934448,312.535217 531.952026,312.263580 532.107239,311.702301 
	C532.488342,310.607758 532.731873,309.802795 533.221802,308.831360 
	C533.645569,308.110931 533.822815,307.556976 534.303528,306.852478 
	C540.023254,299.261658 547.801270,295.509521 556.305664,293.012329 
	C560.511536,291.777344 564.825500,290.910461 569.090515,289.877014 
	C572.827881,293.534241 576.565186,297.191498 580.534546,301.392273 
	C580.875610,302.293457 580.984741,302.651154 581.093811,303.008820 
	C580.998108,303.759827 580.902405,304.510864 580.906067,305.631836 
z"/>
<path fill="#FA6448" opacity="1.000000" stroke="none" 
	d="
M578.476196,722.401672 
	C578.947205,733.419434 578.955933,744.428833 578.945068,755.846924 
	C572.758972,755.624634 566.192444,756.114319 560.523560,754.090027 
	C552.755737,751.316162 549.709167,743.748596 551.252136,735.815247 
	C552.670044,728.525208 559.270447,722.763611 567.088013,722.296082 
	C570.715088,722.079102 574.371033,722.345886 578.476196,722.401672 
z"/>
<path fill="#40BAB9" opacity="1.000000" stroke="none" 
	d="
M356.149719,292.301147 
	C357.861053,291.311279 359.339630,290.574005 360.804810,289.811096 
	C366.749634,286.715607 372.686462,286.416077 378.132355,290.657166 
	C383.511627,294.846375 386.208954,300.477142 384.539673,307.350342 
	C382.889282,314.145844 378.200043,318.539093 371.389618,319.334930 
	C368.111511,319.717957 364.352509,318.106750 361.182739,316.611237 
	C358.730286,315.454132 356.855591,313.072601 354.415649,311.111145 
	C354.708435,304.838593 355.309601,298.690247 356.149719,292.301147 
z"/>
<path fill="#FA6347" opacity="1.000000" stroke="none" 
	d="
M568.928101,289.583160 
	C564.825500,290.910461 560.511536,291.777344 556.305664,293.012329 
	C547.801270,295.509521 540.023254,299.261658 534.046814,306.640442 
	C533.481750,305.802429 533.159973,304.805054 533.522644,304.284546 
	C536.297424,300.302063 539.136414,296.358368 542.128540,292.538147 
	C542.750793,291.743652 544.077087,291.474884 545.108093,291.031647 
	C546.962769,290.234314 548.839539,289.488312 550.636047,288.750031 
	C549.334778,286.067413 548.526001,283.904816 547.292725,282.020081 
	C546.368408,280.607635 545.088074,278.876160 543.633972,278.466522 
	C539.377991,277.267700 534.949158,276.691864 530.601318,275.806793 
	C527.956360,275.268402 525.313416,274.691559 522.711792,273.978180 
	C520.776917,273.447632 518.879944,272.025452 517.017334,272.111267 
	C507.670197,272.541901 498.339874,273.338165 488.634247,274.048706 
	C487.099091,274.691284 485.960297,275.352142 484.763214,275.881073 
	C477.325165,279.167786 469.840088,282.350403 462.442108,285.724335 
	C458.908844,287.335754 455.532684,289.291626 452.039795,291.043182 
	C451.994263,290.994904 451.902893,290.898499 451.902893,290.898499 
	C461.885223,280.643555 474.565796,275.234161 488.094635,272.207214 
	C517.442627,265.640900 544.488098,271.256226 568.928101,289.583160 
z"/>
<path fill="#FA6448" opacity="1.000000" stroke="none" 
	d="
M641.855774,391.910339 
	C641.139526,390.189636 640.388611,388.839142 640.143616,387.402344 
	C639.086731,381.204010 641.950806,375.976471 647.246277,374.144745 
	C652.256409,372.411743 657.532593,374.995758 660.263306,380.519836 
	C662.911072,385.876099 661.815552,390.624298 657.114136,394.168182 
	C652.238342,397.843506 647.121338,397.188629 641.855774,391.910339 
z"/>
<path fill="#095A9F" opacity="1.000000" stroke="none" 
	d="
M726.530029,390.270203 
	C724.517151,383.370453 726.628540,377.494751 731.730225,374.977692 
	C736.117004,372.813324 742.016296,374.333130 745.139404,378.432220 
	C748.988647,383.484406 748.072449,390.173859 743.026184,393.860840 
	C737.463623,397.925049 731.096619,396.656158 726.530029,390.270203 
z"/>
<path fill="#0C3866" opacity="1.000000" stroke="none" 
	d="
M684.724487,391.231567 
	C681.968628,385.395081 682.377869,380.593414 685.808289,377.098480 
	C689.053833,373.792023 692.984253,373.096680 697.253784,374.565338 
	C702.015015,376.203125 705.089966,380.384705 704.950439,385.085144 
	C704.802734,390.059753 702.303833,393.492645 697.624878,395.306213 
	C692.700989,397.214630 689.012817,396.135956 684.724487,391.231567 
z"/>
<path fill="#28233B" opacity="1.000000" stroke="none" 
	d="
M370.634644,502.074799 
	C375.296051,506.162506 376.451141,510.135742 374.151764,514.035583 
	C372.120209,517.481140 369.137970,519.294861 364.975525,518.287292 
	C360.745880,517.263428 357.841888,513.541992 357.840454,509.230042 
	C357.838318,502.802216 363.179291,499.656586 370.634644,502.074799 
z"/>
<path fill="#BB3F3F" opacity="1.000000" stroke="none" 
	d="
M545.221436,516.325806 
	C547.610657,510.001892 551.917664,507.483276 556.158264,509.749420 
	C559.735535,511.661072 561.707336,514.717468 560.647095,518.819946 
	C559.547791,523.073669 556.370728,525.246887 552.049866,524.836121 
	C547.386719,524.392944 544.960449,521.542969 545.221436,516.325806 
z"/>
<path fill="#28233B" opacity="1.000000" stroke="none" 
	d="
M423.230713,635.955200 
	C427.400177,634.095215 431.170959,634.633240 433.137970,638.206360 
	C434.362427,640.430603 434.803314,644.322449 433.627014,646.286865 
	C432.434937,648.277649 428.781158,649.786682 426.277954,649.687134 
	C424.261810,649.606995 420.955780,646.996887 420.718872,645.183167 
	C420.346161,642.329712 422.071899,639.202209 423.230713,635.955200 
z"/>
<path fill="#FA6347" opacity="1.000000" stroke="none" 
	d="
M440.238831,362.100586 
	C432.341187,345.277527 433.658508,327.499573 434.247681,309.504242 
	C434.733429,309.371033 435.105011,309.552460 435.719482,309.849365 
	C435.962402,309.964813 436.081665,310.072784 436.053894,310.534943 
	C436.017395,319.626709 435.560486,328.287292 436.154236,336.875244 
	C436.564514,342.809143 438.201782,348.701233 439.714752,354.501373 
	C440.817413,358.728394 442.611786,362.774963 444.097809,366.901978 
	C444.097809,366.901978 443.966644,367.019806 443.657074,366.951111 
	C442.920624,366.554810 442.493744,366.227203 442.066864,365.899567 
	C442.066864,365.899567 442.029816,365.970032 442.064270,365.626434 
	C441.478607,364.336578 440.858521,363.390320 440.238464,362.444061 
	C440.238464,362.444061 440.320587,362.200043 440.238831,362.100586 
z"/>
<path fill="#40BAB9" opacity="1.000000" stroke="none" 
	d="
M631.539307,272.213928 
	C630.598999,272.890717 629.228882,273.830109 627.809143,273.912323 
	C623.989197,274.133423 620.129578,273.751282 616.319885,274.047638 
	C611.286804,274.439148 606.286316,275.248444 600.815430,275.798279 
	C604.170227,274.502563 607.917236,272.584717 611.807007,272.229675 
	C618.184875,271.647644 624.655334,272.080688 631.539307,272.213928 
z"/>
<path fill="#FA6347" opacity="1.000000" stroke="none" 
	d="
M628.984863,614.976257 
	C629.500122,614.198730 630.015381,613.421204 630.707336,612.322510 
	C630.884033,612.001282 630.940125,611.865479 630.940125,611.865479 
	C633.986267,611.644775 637.032471,611.424072 640.535034,611.263550 
	C639.187927,612.211975 637.356140,613.047974 635.590637,614.006104 
	C634.341309,614.684143 633.181580,615.527405 631.648438,616.604187 
	C630.538330,616.266418 629.761597,615.621338 628.984863,614.976257 
z"/>
<path fill="#40BAB9" opacity="1.000000" stroke="none" 
	d="
M581.451172,302.930786 
	C580.984741,302.651154 580.875610,302.293457 580.753296,301.654785 
	C582.901367,296.630646 585.062683,291.887482 587.523438,286.985718 
	C585.818054,292.168976 583.813232,297.510864 581.451172,302.930786 
z"/>
<path fill="#FA6347" opacity="1.000000" stroke="none" 
	d="
M441.524353,301.459930 
	C444.764252,297.986633 448.004120,294.513306 451.573425,290.969238 
	C451.902893,290.898499 451.994263,290.994904 451.972229,291.376953 
	C448.645752,295.184753 445.341309,298.610474 441.910492,301.890564 
	C441.784119,301.744904 441.524353,301.459930 441.524353,301.459930 
z"/>
<path fill="#FA6347" opacity="1.000000" stroke="none" 
	d="
M435.902618,309.911011 
	C437.544128,307.166931 439.245453,304.476685 441.235535,301.623169 
	C441.524353,301.459930 441.784119,301.744904 441.858215,302.240906 
	C439.982056,305.182159 438.031860,307.627472 436.081665,310.072784 
	C436.081665,310.072784 435.962402,309.964813 435.902618,309.911011 
z"/>
<path fill="#095A9F" opacity="1.000000" stroke="none" 
	d="
M587.412354,445.207092 
	C588.177429,443.500061 589.276367,441.673798 590.718628,439.691650 
	C589.956787,441.386414 588.851501,443.237122 587.412354,445.207092 
z"/>
<path fill="#40BAB9" opacity="1.000000" stroke="none" 
	d="
M591.448730,281.832245 
	C591.076111,282.818237 590.395752,283.890717 589.329346,284.954224 
	C589.675903,283.936432 590.408508,282.927612 591.448730,281.832245 
z"/>
<path fill="#40BAB9" opacity="1.000000" stroke="none" 
	d="
M644.491821,272.188782 
	C643.143982,272.448486 641.395752,272.590363 639.382690,272.523163 
	C640.775696,272.233063 642.433594,272.152039 644.491821,272.188782 
z"/>
<path fill="#40BAB9" opacity="1.000000" stroke="none" 
	d="
M599.663330,275.720947 
	C598.901123,276.461456 597.788025,277.222046 596.307983,277.963806 
	C597.064819,277.210327 598.188599,276.475677 599.663330,275.720947 
z"/>
<path fill="#40BAB9" opacity="1.000000" stroke="none" 
	d="
M595.627930,277.998840 
	C595.111450,278.864227 594.275269,279.794830 593.096191,280.788208 
	C593.605042,279.922058 594.456665,278.993073 595.627930,277.998840 
z"/>
<path fill="#40BAB9" opacity="1.000000" stroke="none" 
	d="
M588.685120,285.103577 
	C588.752625,285.521881 588.559998,286.092438 588.073853,286.779510 
	C587.995239,286.349304 588.210083,285.802551 588.685120,285.103577 
z"/>
<path fill="#FC6349" opacity="1.000000" stroke="none" 
	d="
M630.826599,611.746582 
	C630.940125,611.865479 630.884033,612.001282 630.845093,612.064697 
	C630.806091,612.128113 630.539978,612.097168 630.413452,612.058472 
	C630.291138,611.738892 630.433167,611.608215 630.826599,611.746582 
z"/>
<path fill="#40BAB9" opacity="1.000000" stroke="none" 
	d="
M592.580322,280.846252 
	C592.670410,281.085999 592.493713,281.399414 592.042358,281.775635 
	C591.949585,281.532288 592.131592,281.226105 592.580322,280.846252 
z"/>
<path fill="#28233B" opacity="1.000000" stroke="none" 
	d="
M512.981934,426.820923 
	C512.691589,427.279968 512.520203,427.252228 512.094727,427.162506 
	C511.569061,418.814819 511.162323,410.530334 511.083374,402.242767 
	C511.044342,398.148224 510.005920,397.217133 505.489868,397.421967 
	C493.130737,397.982513 480.696808,397.610138 469.160156,391.255127 
	C482.054657,395.691650 495.599365,396.374176 509.268646,395.793701 
	C512.489624,395.656921 513.215332,397.040558 513.174927,399.910187 
	C513.050903,408.716797 513.111877,417.526001 512.981934,426.820923 
z"/>
<path fill="#28233B" opacity="1.000000" stroke="none" 
	d="
M403.882721,371.936218 
	C403.477203,365.691040 403.135498,359.054077 402.853821,352.414581 
	C402.777374,350.613708 402.882141,348.805084 402.992554,346.549438 
	C403.381012,350.787292 403.774689,355.472137 403.950897,360.165192 
	C404.093109,363.952850 403.972900,367.750336 403.882721,371.936218 
z"/>
<path fill="#28233B" opacity="1.000000" stroke="none" 
	d="
M456.070312,383.265442 
	C457.785522,383.988739 459.505035,385.081268 461.384949,386.482971 
	C459.721771,385.739655 457.898193,384.687164 456.070312,383.265442 
z"/>
<path fill="#28233B" opacity="1.000000" stroke="none" 
	d="
M462.049896,387.329742 
	C462.934845,387.441833 463.862518,387.907410 464.936096,388.657654 
	C464.085541,388.522583 463.089081,388.102905 462.049896,387.329742 
z"/>
<path fill="#28233B" opacity="1.000000" stroke="none" 
	d="
M444.001221,369.314056 
	C444.694519,369.737030 445.368835,370.524445 446.070282,371.631958 
	C445.392365,371.194214 444.687317,370.436340 444.001221,369.314056 
z"/>
<path fill="#28233B" opacity="1.000000" stroke="none" 
	d="
M442.032776,366.264954 
	C442.493744,366.227203 442.920624,366.554810 443.590576,367.008972 
	C443.900909,367.543945 443.968201,367.952362 444.043365,368.672485 
	C443.367096,368.199554 442.682892,367.414917 442.032776,366.264954 
z"/>
<path fill="#28233B" opacity="1.000000" stroke="none" 
	d="
M450.024963,377.322113 
	C450.764069,377.694031 451.512909,378.407227 452.304169,379.434296 
	C451.575989,379.053223 450.805359,378.358307 450.024963,377.322113 
z"/>
<path fill="#28233B" opacity="1.000000" stroke="none" 
	d="
M447.208435,374.065552 
	C447.862335,374.247803 448.457672,374.785187 449.093170,375.638702 
	C448.472168,375.443420 447.811035,374.932037 447.208435,374.065552 
z"/>
<path fill="#28233B" opacity="1.000000" stroke="none" 
	d="
M440.175354,362.818787 
	C440.858521,363.390320 441.478607,364.336578 442.104065,365.625519 
	C441.443665,365.043304 440.777954,364.118439 440.175354,362.818787 
z"/>
<path fill="#28233B" opacity="1.000000" stroke="none" 
	d="
M452.273865,379.966064 
	C452.746643,379.913147 453.258270,380.178711 453.868134,380.729370 
	C453.415161,380.771118 452.863953,380.527832 452.273865,379.966064 
z"/>
<path fill="#28233B" opacity="1.000000" stroke="none" 
	d="
M446.044128,372.241150 
	C446.465302,372.344269 446.876221,372.776215 447.301025,373.519379 
	C446.887878,373.410400 446.460907,372.990204 446.044128,372.241150 
z"/>
<path fill="#28233B" opacity="1.000000" stroke="none" 
	d="
M467.154968,390.166626 
	C467.389191,390.011444 467.783630,390.140778 468.359497,390.533813 
	C468.132385,390.682068 467.723785,390.566589 467.154968,390.166626 
z"/>
<path fill="#28233B" opacity="1.000000" stroke="none" 
	d="
M465.189636,389.192688 
	C465.420380,389.039703 465.812927,389.166748 466.387787,389.554199 
	C466.163849,389.700623 465.757660,389.586670 465.189636,389.192688 
z"/>
<path fill="#28233B" opacity="1.000000" stroke="none" 
	d="
M455.115356,382.226196 
	C455.328308,382.135834 455.634094,382.288879 456.021179,382.694824 
	C455.804352,382.788361 455.506287,382.628967 455.115356,382.226196 
z"/>
<path fill="#1B294D" opacity="1.000000" stroke="none" 
	d="
M651.135498,699.777222 
	C648.360046,699.805298 645.584595,699.833435 642.338928,699.796692 
	C639.473206,699.335022 637.077637,698.938232 633.982422,698.425537 
	C633.982422,683.741943 633.982422,669.009277 634.457520,653.745544 
	C643.598938,653.073181 652.265320,652.931885 660.931641,652.790649 
	C661.150818,652.847717 661.370056,652.904846 661.900635,653.102661 
	C662.168884,668.411926 662.125854,683.580444 662.022949,699.181030 
	C661.509766,699.716125 661.056396,699.819153 659.965820,699.629517 
	C656.597595,699.483521 653.866516,699.630371 651.135498,699.777222 
z"/>
<path fill="#282239" opacity="1.000000" stroke="none" 
	d="
M628.614746,614.896851 
	C629.761597,615.621338 630.538330,616.266418 631.604919,617.003967 
	C631.894836,617.096436 631.944763,617.074280 631.992859,617.338989 
	C632.327209,617.854736 632.613525,618.105713 632.899780,618.356750 
	C632.899780,618.356750 632.917236,618.738586 633.090576,619.244202 
	C634.116150,622.824646 634.968445,625.899414 635.820679,628.974243 
	C635.616150,629.742798 635.411682,630.511353 635.038940,631.952087 
	C634.251831,634.083496 633.632996,635.542664 633.014221,637.001892 
	C633.014221,637.001892 632.997559,637.000000 632.731323,637.142456 
	C632.219055,637.811523 631.972900,638.338135 631.726807,638.864746 
	C631.726807,638.864746 631.853027,638.824951 631.485962,638.843262 
	C629.419067,639.938354 627.719238,641.015198 625.758728,642.078186 
	C625.229492,642.271057 624.960876,642.477661 624.401855,642.697266 
	C623.732056,642.787048 623.352661,642.863892 622.973267,642.940796 
	C621.986633,642.849304 620.993469,642.802246 620.014465,642.658875 
	C614.002930,641.778809 609.083862,638.980103 607.361572,632.988342 
	C605.733154,627.322876 606.774292,621.703064 611.402527,617.480835 
	C616.357178,612.960999 621.961609,611.468262 628.614746,614.896851 
z"/>
<path fill="#FA6347" opacity="1.000000" stroke="none" 
	d="
M626.019409,642.092041 
	C627.719238,641.015198 629.419067,639.938354 631.443054,638.792908 
	C631.223999,640.188354 630.528381,641.616089 630.169373,643.123901 
	C629.406616,646.327515 630.248535,649.093201 632.903687,651.801331 
	C632.948975,652.378235 632.909912,652.823181 632.909912,652.823181 
	C627.607849,652.828125 622.305847,652.833069 616.425415,652.645142 
	C615.532654,652.540588 615.218201,652.628967 614.903809,652.717285 
	C614.519348,652.740601 614.134888,652.763916 613.467896,652.732361 
	C614.266724,646.518433 616.154907,644.670288 622.742798,643.244507 
	C623.352661,642.863892 623.732056,642.787048 624.670532,642.740967 
	C625.492920,642.545166 625.756165,642.318604 626.019409,642.092041 
z"/>
<path fill="#BB3F3F" opacity="1.000000" stroke="none" 
	d="
M633.182983,652.963562 
	C632.909912,652.823181 632.948975,652.378235 632.969238,652.155151 
	C642.093079,652.052185 651.196716,652.172302 660.615967,652.541504 
	C652.265320,652.931885 643.598938,653.073181 634.466553,653.301270 
	C633.819092,653.293396 633.637573,653.198669 633.182983,652.963562 
z"/>
<path fill="#FA6347" opacity="1.000000" stroke="none" 
	d="
M636.095947,628.805664 
	C634.968445,625.899414 634.116150,622.824646 633.229004,619.375916 
	C637.490601,621.146179 637.121460,624.828796 636.095947,628.805664 
z"/>
<path fill="#FA6347" opacity="1.000000" stroke="none" 
	d="
M633.340454,636.950439 
	C633.632996,635.542664 634.251831,634.083496 635.081970,632.354126 
	C634.751038,633.689026 634.208862,635.294006 633.340454,636.950439 
z"/>
<path fill="#FA6347" opacity="1.000000" stroke="none" 
	d="
M632.023682,638.768799 
	C631.972900,638.338135 632.219055,637.811523 632.734314,637.150574 
	C632.775818,637.568420 632.548218,638.120667 632.023682,638.768799 
z"/>
<path fill="#BB3F3F" opacity="1.000000" stroke="none" 
	d="
M664.762573,652.467224 
	C664.492981,652.758911 664.072998,652.874268 663.341309,652.869385 
	C663.557190,652.596436 664.084656,652.443665 664.762573,652.467224 
z"/>
<path fill="#FA6347" opacity="1.000000" stroke="none" 
	d="
M632.836792,618.069824 
	C632.613525,618.105713 632.327209,617.854736 631.973511,617.322021 
	C632.195374,617.287903 632.484558,617.535400 632.836792,618.069824 
z"/>
<path fill="#FF6245" opacity="1.000000" stroke="none" 
	d="
M489.003662,274.005981 
	C498.339874,273.338165 507.670197,272.541901 517.017334,272.111267 
	C518.879944,272.025452 520.776917,273.447632 522.711792,273.978180 
	C525.313416,274.691559 527.956360,275.268402 530.601318,275.806793 
	C534.949158,276.691864 539.377991,277.267700 543.633972,278.466522 
	C545.088074,278.876160 546.368408,280.607635 547.292725,282.020081 
	C548.526001,283.904816 549.334778,286.067413 550.636047,288.750031 
	C548.839539,289.488312 546.962769,290.234314 545.108093,291.031647 
	C544.077087,291.474884 542.750793,291.743652 542.128540,292.538147 
	C539.136414,296.358368 536.297424,300.302063 533.522644,304.284546 
	C533.159973,304.805054 533.481750,305.802429 533.743286,306.790955 
	C533.822815,307.556976 533.645569,308.110931 532.903687,308.880310 
	C532.215881,310.061127 532.092773,311.026520 531.969666,311.991913 
	C531.952026,312.263580 531.934448,312.535217 531.878296,313.215637 
	C526.198303,313.794525 520.556885,313.964630 514.457336,314.032349 
	C513.362976,313.486633 512.198547,312.620728 512.166565,312.660767 
	C510.778564,314.395538 507.990662,316.777618 508.425232,317.927521 
	C512.408203,328.467163 508.283112,339.018555 509.008514,349.500183 
	C509.634125,358.538727 510.535797,367.563354 510.930786,376.610931 
	C511.207703,382.954803 508.145782,383.889709 502.136230,384.903381 
	C495.191345,386.074768 487.432312,385.266998 481.380188,390.730408 
	C477.673157,394.076843 474.529083,389.554047 471.189941,388.565887 
	C469.672333,388.116730 468.427094,386.256317 467.384186,384.802338 
	C465.557007,382.254883 463.934906,379.853302 460.151672,381.668823 
	C459.551453,381.956848 457.400421,380.720367 457.445679,380.393616 
	C458.300140,374.224548 452.589813,372.623383 449.786774,369.032379 
	C449.318604,368.432648 449.259003,367.514008 449.005157,365.911072 
	C449.317871,361.143372 448.816437,356.852600 450.301331,353.421387 
	C451.040039,351.714447 455.663452,352.012482 458.096100,350.636993 
	C461.518494,348.701904 463.997681,345.743256 462.935150,341.290100 
	C461.948029,337.152924 458.537048,339.726715 456.308624,339.013092 
	C456.006226,338.916260 455.645905,339.010773 455.313354,338.996002 
	C449.676361,338.745514 447.563507,335.719788 448.401276,330.006042 
	C448.847717,326.961365 448.871246,323.703064 448.302490,320.688934 
	C446.420410,310.714508 449.409607,306.020782 459.257721,303.953522 
	C460.491760,303.694489 462.623199,302.345154 462.524994,301.929535 
	C461.464020,297.438812 465.690491,297.531219 467.639526,295.736267 
	C468.670654,294.786682 470.264374,294.291687 470.984314,293.187378 
	C474.127380,288.366455 477.753906,286.767181 483.440857,287.589783 
	C485.135681,287.834930 486.966217,287.142029 490.388794,286.632843 
	C483.926727,281.789948 486.789307,277.909698 489.003662,274.005981 
z"/>
<path fill="#FC6349" opacity="1.000000" stroke="none" 
	d="
M488.634247,274.048706 
	C486.789307,277.909698 483.926727,281.789948 490.388794,286.632843 
	C486.966217,287.142029 485.135681,287.834930 483.440857,287.589783 
	C477.753906,286.767181 474.127380,288.366455 470.984314,293.187378 
	C470.264374,294.291687 468.670654,294.786682 467.639526,295.736267 
	C465.690491,297.531219 461.464020,297.438812 462.524994,301.929535 
	C462.623199,302.345154 460.491760,303.694489 459.257721,303.953522 
	C449.409607,306.020782 446.420410,310.714508 448.302490,320.688934 
	C448.871246,323.703064 448.847717,326.961365 448.401276,330.006042 
	C447.563507,335.719788 449.676361,338.745514 455.313354,338.996002 
	C455.645905,339.010773 456.006226,338.916260 456.308624,339.013092 
	C458.537048,339.726715 461.948029,337.152924 462.935150,341.290100 
	C463.997681,345.743256 461.518494,348.701904 458.096100,350.636993 
	C455.663452,352.012482 451.040039,351.714447 450.301331,353.421387 
	C448.816437,356.852600 449.317871,361.143372 448.999207,365.540344 
	C447.603912,366.319214 446.209045,366.637238 444.455994,366.928619 
	C442.611786,362.774963 440.817413,358.728394 439.714752,354.501373 
	C438.201782,348.701233 436.564514,342.809143 436.154236,336.875244 
	C435.560486,328.287292 436.017395,319.626709 436.053894,310.534943 
	C438.031860,307.627472 439.982056,305.182159 441.984558,302.386536 
	C445.341309,298.610474 448.645752,295.184753 452.017761,291.425232 
	C455.532684,289.291626 458.908844,287.335754 462.442108,285.724335 
	C469.840088,282.350403 477.325165,279.167786 484.763214,275.881073 
	C485.960297,275.352142 487.099091,274.691284 488.634247,274.048706 
z"/>
<path fill="#28233B" opacity="1.000000" stroke="none" 
	d="
M512.987061,448.252502 
	C512.711182,442.384583 512.540466,436.092407 512.618286,429.504028 
	C512.941895,435.414612 513.017029,441.621429 512.987061,448.252502 
z"/>
<path fill="#282239" opacity="1.000000" stroke="none" 
	d="
M715.626709,298.443970 
	C724.709656,300.828461 729.623352,307.137543 728.839111,314.941345 
	C728.114258,322.155182 721.706604,327.967651 714.274536,328.153076 
	C706.381104,328.350037 700.425842,322.972626 699.590820,314.894226 
	C698.781372,307.062164 704.194946,299.821716 711.762024,298.664642 
	C712.906311,298.489624 714.077454,298.490326 715.626709,298.443970 
z"/>
<path fill="#BB3F3F" opacity="1.000000" stroke="none" 
	d="
M615.197998,652.800293 
	C615.218201,652.628967 615.532654,652.540588 615.966370,652.594482 
	C615.887878,652.785522 615.690002,652.834351 615.197998,652.800293 
z"/>
<path fill="#454565" opacity="1.000000" stroke="none" 
	d="
M651.559937,699.876465 
	C653.866516,699.630371 656.597595,699.483521 659.614502,699.575073 
	C657.261658,699.867554 654.623047,699.921631 651.559937,699.876465 
z"/>
<path fill="#FA6347" opacity="1.000000" stroke="none" 
	d="
M532.107239,311.702301 
	C532.092773,311.026520 532.215881,310.061127 532.657166,309.046814 
	C532.731873,309.802795 532.488342,310.607758 532.107239,311.702301 
z"/>
<path fill="#BB3F3F" opacity="1.000000" stroke="none" 
	d="
M625.758728,642.078247 
	C625.756165,642.318604 625.492920,642.545166 624.960999,642.728027 
	C624.960876,642.477661 625.229492,642.271057 625.758728,642.078247 
z"/>
</svg>